<svg xmlns="http://www.w3.org/2000/svg" width="10.552" height="12.919" viewBox="0 0 10.552 12.919"><defs><style>.a{fill:#e6e6e6;}</style></defs><g transform="translate(0.001)"><path class="a" d="M10.518,2.888l-.285-.855a.8.8,0,0,0-.755-.544H7.08V.708A.708.708,0,0,0,6.373,0h-2.2A.708.708,0,0,0,3.47.708v.781h-2.4a.8.8,0,0,0-.756.544l-.285.855a.64.64,0,0,0,.607.843h.3l.656,8.115a1.174,1.174,0,0,0,1.163,1.074H7.926A1.174,1.174,0,0,0,9.09,11.845L9.746,3.73h.165a.64.64,0,0,0,.607-.843ZM4.227.757h2.1v.731h-2.1ZM8.335,11.784a.413.413,0,0,1-.409.378H2.757a.413.413,0,0,1-.409-.378L1.7,3.73h7.29ZM.8,2.973l.234-.7a.039.039,0,0,1,.037-.027h8.4a.039.039,0,0,1,.037.027l.234.7Zm0,0" transform="translate(0)"/><path class="a" d="M268.655,173.155h.02a.378.378,0,0,0,.378-.359l.355-6.823a.379.379,0,1,0-.756-.039l-.355,6.823A.379.379,0,0,0,268.655,173.155Zm0,0" transform="translate(-261.527 -161.398)"/><path class="a" d="M106.167,172.8a.379.379,0,0,0,.378.358h.021a.378.378,0,0,0,.357-.4l-.372-6.823a.378.378,0,0,0-.756.041Zm0,0" transform="translate(-103.125 -161.401)"/><path class="a" d="M194.632,173.158a.378.378,0,0,0,.378-.379v-6.823a.378.378,0,0,0-.757,0v6.823A.378.378,0,0,0,194.632,173.158Zm0,0" transform="translate(-189.353 -161.4)"/></g></svg>