<svg xmlns="http://www.w3.org/2000/svg" width="36.589" height="38.234" viewBox="0 0 36.589 38.234"><defs><style>.a{fill:#e6e6e6;}</style></defs><g transform="translate(-10.256 0)"><g transform="translate(10.256 0.001)"><path class="a" d="M46.454,16.789,29.441.363a1.276,1.276,0,0,0-1.782,0L10.648,16.788a1.283,1.283,0,0,0,.891,2.206H13.8V36.951a1.283,1.283,0,0,0,1.283,1.283h8.979a1.283,1.283,0,0,0,1.283-1.283V26.69h6.414V36.951a1.283,1.283,0,0,0,1.283,1.283h8.979A1.283,1.283,0,0,0,43.3,36.951V18.994h2.261a1.283,1.283,0,0,0,.891-2.2Zm-3.152.922a1.283,1.283,0,0,0-1.283,1.283V36.951H33.04V26.69a1.283,1.283,0,0,0-1.283-1.283H25.344a1.283,1.283,0,0,0-1.283,1.283V36.951H15.082V18.994A1.283,1.283,0,0,0,13.8,17.711H11.539L28.551,1.286,45.569,17.711Z" transform="translate(-10.256 -0.001)"/></g></g></svg>