<svg xmlns="http://www.w3.org/2000/svg" width="27.909" height="37.775" viewBox="0 0 27.909 37.775"><defs><style>.a{fill:#e6e6e6;}</style></defs><g transform="translate(-48.08 -16)"><g transform="translate(48.08 16)"><g transform="translate(0)"><path class="a" d="M62.034,0A13.97,13.97,0,0,0,48.08,13.954a16.1,16.1,0,0,0,1.184,5.372,22.5,22.5,0,0,0,1.613,3.017l9.568,14.5a1.82,1.82,0,0,0,3.18,0l9.569-14.5a22.409,22.409,0,0,0,1.613-3.017,16.1,16.1,0,0,0,1.183-5.372A13.97,13.97,0,0,0,62.034,0ZM73.292,18.69a20.621,20.621,0,0,1-1.47,2.75l-9.569,14.5c-.189.286-.249.286-.438,0l-9.569-14.5a20.629,20.629,0,0,1-1.47-2.751,14.614,14.614,0,0,1-1.056-4.735,12.313,12.313,0,0,1,24.625,0A14.626,14.626,0,0,1,73.292,18.69Z" transform="translate(-48.08)"/><path class="a" d="M119.468,64.008a7.388,7.388,0,1,0,7.388,7.388A7.4,7.4,0,0,0,119.468,64.008Zm0,13.133a5.746,5.746,0,1,1,5.746-5.746A5.753,5.753,0,0,1,119.468,77.141Z" transform="translate(-105.513 -57.44)"/></g></g></g></svg>