<svg xmlns="http://www.w3.org/2000/svg" width="33.725" height="33.725" viewBox="0 0 33.725 33.725"><defs><style>.a{fill:#f4f4f4;}</style></defs><g transform="translate(-18 -9)"><g transform="translate(18 9)"><path class="a" d="M28.786,21.8a16.8,16.8,0,0,0-6.408-4.019,9.749,9.749,0,1,0-11.032,0A16.889,16.889,0,0,0,0,33.725H2.635a14.228,14.228,0,1,1,28.456,0h2.635A16.753,16.753,0,0,0,28.786,21.8ZM16.863,16.863a7.114,7.114,0,1,1,7.114-7.114A7.122,7.122,0,0,1,16.863,16.863Z" transform="translate(0)"/></g></g></svg>